<svg xmlns="http://www.w3.org/2000/svg" xmlns:xlink="http://www.w3.org/1999/xlink" width="500" zoomAndPan="magnify" viewBox="0 0 375 374.999991" height="500" preserveAspectRatio="xMidYMid meet" version="1.0"><defs><g/></defs><rect x="-37.5" width="450" fill="#ffffff" y="-37.499999" height="449.999989" fill-opacity="1"/><rect x="-37.5" width="450" fill="#272727" y="-37.499999" height="449.999989" fill-opacity="1"/><rect x="-37.5" width="450" fill="#ffffff" y="-37.499999" height="449.999989" fill-opacity="1"/><rect x="-37.5" width="450" fill="#272727" y="-37.499999" height="449.999989" fill-opacity="1"/><g fill="#fd6155" fill-opacity="0.302"><g transform="translate(31.953429, 225.750933)"><g><path d="M 61.890625 -43.9375 C 59.527344 -30.960938 54.53125 -22.152344 48.191406 -21.050781 C 45.75 -20.625 43.855469 -21.703125 43.398438 -24.335938 C 43.175781 -25.605469 43.242188 -27.523438 43.605469 -29.496094 L 53.371094 -85.964844 C 53.667969 -87.726562 53.707031 -89.238281 53.484375 -90.507812 C 52.703125 -94.992188 49.015625 -96.5625 45.40625 -95.933594 C 41.601562 -95.273438 37.796875 -92.296875 36.984375 -87.734375 C 33.195312 -91.597656 26.519531 -91.84375 22.230469 -91.097656 C 12.671875 -89.433594 4.160156 -82.324219 2.472656 -72.382812 L -5.632812 -24.847656 C -6.085938 -22.253906 -6.132812 -19.632812 -5.722656 -17.292969 C -3.921875 -6.953125 5.65625 -0.984375 16.484375 -2.871094 C 22.238281 -3.871094 28.136719 -7.511719 32.179688 -13.136719 C 36.328125 -8.9375 42.625 -7.417969 49.160156 -8.558594 C 63.789062 -11.101562 71.339844 -24.878906 74.117188 -43.550781 C 74.277344 -44.382812 74.238281 -45.179688 74.117188 -45.863281 C 73.542969 -49.179688 70.46875 -50.65625 67.445312 -50.128906 C 64.8125 -49.667969 62.355469 -47.632812 61.890625 -43.9375 Z M 17.234375 -18.175781 C 13.628906 -17.546875 10.941406 -19.691406 10.332031 -23.203125 C 10.128906 -24.375 10.183594 -25.789062 10.414062 -27.335938 L 17.203125 -68.011719 C 18.0625 -72.886719 20.984375 -76.308594 24.886719 -76.988281 C 29.277344 -77.75 33.804688 -74.820312 34.5 -70.824219 C 34.621094 -70.140625 34.542969 -69.421875 34.46875 -68.707031 L 28.484375 -33.800781 C 26.546875 -22.40625 22.210938 -19.039062 17.234375 -18.175781 Z M 17.234375 -18.175781 "/></g></g></g><g fill="#fd6155" fill-opacity="0.302"><g transform="translate(94.662395, 214.835409)"><g><path d="M 49.535156 -37.5625 C 47.28125 -25.113281 42.75 -19.398438 38.164062 -18.601562 C 36.410156 -18.296875 35.28125 -19.003906 34.992188 -20.664062 C 34.875 -21.34375 34.933594 -22.160156 35.054688 -23.183594 L 38.894531 -46.164062 C 39.238281 -48.230469 39.320312 -50.054688 39.035156 -51.714844 C 37.675781 -59.515625 30.023438 -64.214844 22.222656 -62.855469 C 18.417969 -62.195312 15.546875 -60.789062 13.332031 -58.496094 C 12.441406 -60.148438 9.832031 -60.699219 7.199219 -60.242188 C 4.46875 -59.765625 2.054688 -58.039062 1.558594 -55.140625 L -6.804688 -6.753906 C -6.941406 -5.824219 -6.90625 -5.027344 -6.769531 -4.25 C -6.140625 -0.640625 -2.988281 0.722656 0.132812 0.179688 C 3.546875 -0.417969 7.074219 -3.242188 7.773438 -7.886719 C 9.539062 -17.941406 11.894531 -32.117188 13.582031 -42.058594 C 15.367188 -47.394531 18.371094 -50.328125 21.101562 -50.804688 C 22.859375 -51.109375 24.332031 -50.160156 24.652344 -48.304688 C 24.773438 -47.625 24.730469 -46.710938 24.589844 -45.785156 L 20.96875 -24.453125 C 20.578125 -22.074219 20.464844 -19.839844 20.820312 -17.792969 C 22.382812 -8.820312 30.625 -5.332031 38.917969 -6.773438 C 48.867188 -8.507812 58.324219 -17.085938 61.746094 -37.277344 C 61.902344 -38.109375 61.960938 -38.921875 61.84375 -39.605469 C 61.300781 -42.726562 58.183594 -43.894531 55.253906 -43.382812 C 52.621094 -42.925781 49.949219 -40.953125 49.535156 -37.5625 Z M 49.535156 -37.5625 "/></g></g></g><g fill="#fd6155" fill-opacity="0.302"><g transform="translate(145.863336, 205.923046)"><g><path d="M 46.988281 -36.617188 C 45.648438 -30.457031 42.929688 -25.863281 38.902344 -22.449219 C 38.875 -23.75 38.867188 -24.953125 38.648438 -26.222656 C 37.664062 -31.878906 33.703125 -36.71875 30.175781 -40.828125 C 27.648438 -43.804688 25.121094 -46.78125 24.203125 -49.734375 C 26.730469 -51.382812 28.332031 -54.875 27.824219 -57.800781 C 27.09375 -61.996094 23.195312 -65.335938 18.320312 -64.488281 C 14.613281 -63.84375 11.230469 -61.34375 10.039062 -57.21875 C 7.523438 -49.144531 4.734375 -40.921875 2.105469 -32.925781 C -4.140625 -30.128906 -6.066406 -22.15625 -4.980469 -15.914062 C -3.316406 -6.355469 7.53125 -0.609375 24.796875 -3.613281 C 41.765625 -6.566406 55.863281 -15.652344 59.261719 -36.542969 C 59.386719 -36.96875 59.300781 -37.457031 59.234375 -37.84375 C 58.742188 -40.675781 55.167969 -42.160156 52.046875 -41.617188 C 49.703125 -41.210938 47.566406 -39.632812 46.988281 -36.617188 Z M 15.609375 -33.871094 L 16.164062 -35.875 C 19.703125 -32.875 22.859375 -28.597656 23.65625 -24.015625 C 24.453125 -19.429688 22.675781 -15.203125 17.542969 -14.109375 C 14.226562 -13.53125 11.046875 -14.484375 9.53125 -16.832031 C 10.34375 -16.773438 11.125 -16.910156 11.808594 -17.027344 C 17.464844 -18.011719 19.949219 -23.371094 19.117188 -28.148438 C 18.726562 -30.390625 17.554688 -32.5 15.609375 -33.871094 Z M 15.609375 -33.871094 "/></g></g></g><g fill="#fd6155" fill-opacity="0.302"><g transform="translate(194.528612, 197.452056)"><g><path d="M 20.726562 -24.109375 C 19.917969 -18.941406 17.097656 -14.933594 13.78125 -14.355469 C 12.121094 -14.070312 10.941406 -15.070312 10.6875 -16.53125 C 10.585938 -17.117188 10.582031 -17.71875 10.675781 -18.339844 L 16.019531 -51.726562 C 16.222656 -52.867188 16.246094 -53.878906 16.078125 -54.851562 C 15.382812 -58.851562 11.394531 -60.972656 7.785156 -60.34375 C 5.054688 -59.867188 2.417969 -57.699219 1.730469 -53.5625 L -3.988281 -18.296875 C -4.347656 -16.328125 -4.300781 -14.324219 -4.015625 -12.667969 C -2.636719 -4.765625 4.683594 -0.816406 12.484375 -2.171875 C 17.554688 -3.054688 21.667969 -5.984375 24.605469 -9.910156 C 28.203125 -7.121094 33.550781 -5.839844 38.625 -6.722656 C 47.792969 -8.320312 56.429688 -15.851562 58.535156 -26.269531 C 61.28125 -24.9375 64.765625 -24.539062 68.277344 -25.148438 C 76.082031 -26.507812 83.152344 -34.371094 83.585938 -42.285156 C 83.582031 -42.886719 83.59375 -43.390625 83.507812 -43.878906 C 82.914062 -47.292969 79.957031 -48.6875 77.03125 -48.179688 C 74.59375 -47.753906 72.199219 -45.929688 71.554688 -42.703125 C 70.910156 -39.476562 68.988281 -37.230469 66.0625 -36.722656 C 63.332031 -36.246094 61.027344 -37.355469 60.851562 -39.535156 L 63.597656 -53.777344 C 64.148438 -56.386719 64.046875 -58.679688 63.710938 -60.632812 C 62.742188 -66.191406 58.992188 -69.257812 53.433594 -68.289062 C 44.363281 -66.710938 41.394531 -53.734375 43.09375 -43.980469 C 43.703125 -40.46875 44.929688 -37.464844 46.6875 -35.460938 L 45.117188 -27.148438 C 44.289062 -22.683594 41.871094 -19.246094 38.457031 -18.652344 C 36.507812 -18.3125 35.117188 -19.378906 34.808594 -21.132812 C 34.691406 -21.816406 34.652344 -22.613281 34.746094 -23.230469 L 40.5 -55.988281 C 40.703125 -57.128906 40.730469 -58.140625 40.558594 -59.113281 C 39.863281 -63.113281 35.875 -65.234375 32.265625 -64.605469 C 29.535156 -64.128906 26.898438 -61.960938 26.210938 -57.824219 Z M 20.726562 -24.109375 "/></g></g></g><g fill="#fd6155" fill-opacity="0.302"><g transform="translate(267.477783, 184.754057)"><g><path d="M 44.566406 -36.097656 C 42.242188 -24.035156 32.800781 -17.667969 24.507812 -16.226562 C 17.390625 -14.984375 12.308594 -17.617188 11.527344 -22.105469 C 11.375 -22.984375 11.320312 -23.878906 11.539062 -24.921875 L 11.996094 -26.910156 C 15.132812 -25.644531 18.847656 -25.085938 22.75 -25.765625 C 31.625 -27.3125 38.460938 -34.230469 39.566406 -43.464844 C 39.730469 -45.402344 39.699219 -47.308594 39.410156 -48.964844 C 37.796875 -58.230469 29.242188 -64.078125 18.222656 -62.160156 C 9.542969 -60.648438 1.9375 -54.101562 0.222656 -43.753906 L -2.628906 -26.070312 C -3 -23.59375 -3.082031 -21.167969 -2.691406 -18.925781 C -0.671875 -7.320312 11.507812 -2.003906 25.75 -4.480469 C 39.308594 -6.84375 53.5625 -16.15625 56.757812 -35.90625 C 56.914062 -36.738281 56.894531 -37.4375 56.792969 -38.023438 C 56.265625 -41.046875 53.246094 -42.230469 50.320312 -41.71875 C 47.589844 -41.246094 44.917969 -39.273438 44.566406 -36.097656 Z M 19.933594 -50.601562 C 22.664062 -51.074219 24.808594 -49.136719 25.300781 -46.308594 C 25.4375 -45.527344 25.476562 -44.730469 25.320312 -43.902344 C 24.90625 -40.511719 22.183594 -38.832031 19.257812 -38.324219 C 17.402344 -38 15.480469 -38.066406 13.980469 -38.609375 L 15.011719 -44.820312 C 15.558594 -48.03125 17.691406 -50.210938 19.933594 -50.601562 Z M 19.933594 -50.601562 "/></g></g></g><g fill="#fd6155" fill-opacity="0.302"><g transform="translate(313.704905, 176.707468)"><g><path d="M 44.527344 -36.894531 C 42.484375 -26.691406 38.75 -18.703125 34.652344 -17.992188 C 33.289062 -17.753906 32.382812 -18.902344 32.148438 -20.265625 C 32.042969 -20.851562 32.007812 -21.648438 32.164062 -22.480469 L 35.132812 -39.480469 C 35.378906 -41.53125 35.464844 -43.355469 35.175781 -45.011719 C 33.5625 -54.277344 21.179688 -56.144531 15.429688 -56.851562 C 15.585938 -57.683594 15.53125 -58.578125 15.394531 -59.355469 C 14.613281 -63.84375 9.953125 -66.953125 5.5625 -66.1875 C -0.191406 -65.1875 -2.722656 -59.519531 -1.753906 -53.960938 C -1.332031 -51.523438 -0.0117188 -49.136719 1.886719 -47.460938 L -1.886719 -27.003906 C -1.945312 -26.191406 -1.90625 -25.394531 -1.804688 -24.808594 C -1.246094 -21.589844 1.578125 -20.375 4.308594 -20.847656 C 7.039062 -21.324219 9.597656 -23.375 10.226562 -26.703125 L 13.140625 -42.28125 C 16.023438 -41.878906 19.75 -41.824219 20.328125 -38.507812 C 20.414062 -38.023438 20.417969 -37.417969 20.34375 -36.703125 L 18.121094 -24.054688 C 17.730469 -21.675781 17.699219 -19.5625 18.039062 -17.609375 C 19.515625 -9.125 27.210938 -4.738281 35.308594 -6.144531 C 45.941406 -7.996094 53.949219 -19.136719 56.835938 -36.625 C 56.925781 -37.242188 56.941406 -37.746094 56.855469 -38.234375 C 56.347656 -41.160156 52.789062 -42.550781 49.667969 -42.007812 C 47.128906 -41.566406 44.894531 -39.972656 44.527344 -36.894531 Z M 44.527344 -36.894531 "/></g></g></g><g fill="#fd6155" fill-opacity="0.502"><g transform="translate(27.327229, 220.59029)"><g><path d="M 61.890625 -43.9375 C 59.527344 -30.960938 54.53125 -22.152344 48.191406 -21.050781 C 45.75 -20.625 43.855469 -21.703125 43.398438 -24.335938 C 43.175781 -25.605469 43.242188 -27.523438 43.605469 -29.496094 L 53.371094 -85.964844 C 53.667969 -87.726562 53.707031 -89.238281 53.484375 -90.507812 C 52.703125 -94.992188 49.015625 -96.5625 45.40625 -95.933594 C 41.601562 -95.273438 37.796875 -92.296875 36.984375 -87.734375 C 33.195312 -91.597656 26.519531 -91.84375 22.230469 -91.097656 C 12.671875 -89.433594 4.160156 -82.324219 2.472656 -72.382812 L -5.632812 -24.847656 C -6.085938 -22.253906 -6.132812 -19.632812 -5.722656 -17.292969 C -3.921875 -6.953125 5.65625 -0.984375 16.484375 -2.871094 C 22.238281 -3.871094 28.136719 -7.511719 32.179688 -13.136719 C 36.328125 -8.9375 42.625 -7.417969 49.160156 -8.558594 C 63.789062 -11.101562 71.339844 -24.878906 74.117188 -43.550781 C 74.277344 -44.382812 74.238281 -45.179688 74.117188 -45.863281 C 73.542969 -49.179688 70.46875 -50.65625 67.445312 -50.128906 C 64.8125 -49.667969 62.355469 -47.632812 61.890625 -43.9375 Z M 17.234375 -18.175781 C 13.628906 -17.546875 10.941406 -19.691406 10.332031 -23.203125 C 10.128906 -24.375 10.183594 -25.789062 10.414062 -27.335938 L 17.203125 -68.011719 C 18.0625 -72.886719 20.984375 -76.308594 24.886719 -76.988281 C 29.277344 -77.75 33.804688 -74.820312 34.5 -70.824219 C 34.621094 -70.140625 34.542969 -69.421875 34.46875 -68.707031 L 28.484375 -33.800781 C 26.546875 -22.40625 22.210938 -19.039062 17.234375 -18.175781 Z M 17.234375 -18.175781 "/></g></g></g><g fill="#fd6155" fill-opacity="0.502"><g transform="translate(90.036195, 209.674766)"><g><path d="M 49.535156 -37.5625 C 47.28125 -25.113281 42.75 -19.398438 38.164062 -18.601562 C 36.410156 -18.296875 35.28125 -19.003906 34.992188 -20.664062 C 34.875 -21.34375 34.933594 -22.160156 35.054688 -23.183594 L 38.894531 -46.164062 C 39.238281 -48.230469 39.320312 -50.054688 39.035156 -51.714844 C 37.675781 -59.515625 30.023438 -64.214844 22.222656 -62.855469 C 18.417969 -62.195312 15.546875 -60.789062 13.332031 -58.496094 C 12.441406 -60.148438 9.832031 -60.699219 7.199219 -60.242188 C 4.46875 -59.765625 2.054688 -58.039062 1.558594 -55.140625 L -6.804688 -6.753906 C -6.941406 -5.824219 -6.90625 -5.027344 -6.769531 -4.25 C -6.140625 -0.640625 -2.988281 0.722656 0.132812 0.179688 C 3.546875 -0.417969 7.074219 -3.242188 7.773438 -7.886719 C 9.539062 -17.941406 11.894531 -32.117188 13.582031 -42.058594 C 15.367188 -47.394531 18.371094 -50.328125 21.101562 -50.804688 C 22.859375 -51.109375 24.332031 -50.160156 24.652344 -48.304688 C 24.773438 -47.625 24.730469 -46.710938 24.589844 -45.785156 L 20.96875 -24.453125 C 20.578125 -22.074219 20.464844 -19.839844 20.820312 -17.792969 C 22.382812 -8.820312 30.625 -5.332031 38.917969 -6.773438 C 48.867188 -8.507812 58.324219 -17.085938 61.746094 -37.277344 C 61.902344 -38.109375 61.960938 -38.921875 61.84375 -39.605469 C 61.300781 -42.726562 58.183594 -43.894531 55.253906 -43.382812 C 52.621094 -42.925781 49.949219 -40.953125 49.535156 -37.5625 Z M 49.535156 -37.5625 "/></g></g></g><g fill="#fd6155" fill-opacity="0.502"><g transform="translate(141.237136, 200.762403)"><g><path d="M 46.988281 -36.617188 C 45.648438 -30.457031 42.929688 -25.863281 38.902344 -22.449219 C 38.875 -23.75 38.867188 -24.953125 38.648438 -26.222656 C 37.664062 -31.878906 33.703125 -36.71875 30.175781 -40.828125 C 27.648438 -43.804688 25.121094 -46.78125 24.203125 -49.734375 C 26.730469 -51.382812 28.332031 -54.875 27.824219 -57.800781 C 27.09375 -61.996094 23.195312 -65.335938 18.320312 -64.488281 C 14.613281 -63.84375 11.230469 -61.34375 10.039062 -57.21875 C 7.523438 -49.144531 4.734375 -40.921875 2.105469 -32.925781 C -4.140625 -30.128906 -6.066406 -22.15625 -4.980469 -15.914062 C -3.316406 -6.355469 7.53125 -0.609375 24.796875 -3.613281 C 41.765625 -6.566406 55.863281 -15.652344 59.261719 -36.542969 C 59.386719 -36.96875 59.300781 -37.457031 59.234375 -37.84375 C 58.742188 -40.675781 55.167969 -42.160156 52.046875 -41.617188 C 49.703125 -41.210938 47.566406 -39.632812 46.988281 -36.617188 Z M 15.609375 -33.871094 L 16.164062 -35.875 C 19.703125 -32.875 22.859375 -28.597656 23.65625 -24.015625 C 24.453125 -19.429688 22.675781 -15.203125 17.542969 -14.109375 C 14.226562 -13.53125 11.046875 -14.484375 9.53125 -16.832031 C 10.34375 -16.773438 11.125 -16.910156 11.808594 -17.027344 C 17.464844 -18.011719 19.949219 -23.371094 19.117188 -28.148438 C 18.726562 -30.390625 17.554688 -32.5 15.609375 -33.871094 Z M 15.609375 -33.871094 "/></g></g></g><g fill="#fd6155" fill-opacity="0.502"><g transform="translate(189.902412, 192.291413)"><g><path d="M 20.726562 -24.109375 C 19.917969 -18.941406 17.097656 -14.933594 13.78125 -14.355469 C 12.121094 -14.070312 10.941406 -15.070312 10.6875 -16.53125 C 10.585938 -17.117188 10.582031 -17.71875 10.675781 -18.339844 L 16.019531 -51.726562 C 16.222656 -52.867188 16.246094 -53.878906 16.078125 -54.851562 C 15.382812 -58.851562 11.394531 -60.972656 7.785156 -60.34375 C 5.054688 -59.867188 2.417969 -57.699219 1.730469 -53.5625 L -3.988281 -18.296875 C -4.347656 -16.328125 -4.300781 -14.324219 -4.015625 -12.667969 C -2.636719 -4.765625 4.683594 -0.816406 12.484375 -2.171875 C 17.554688 -3.054688 21.667969 -5.984375 24.605469 -9.910156 C 28.203125 -7.121094 33.550781 -5.839844 38.625 -6.722656 C 47.792969 -8.320312 56.429688 -15.851562 58.535156 -26.269531 C 61.28125 -24.9375 64.765625 -24.539062 68.277344 -25.148438 C 76.082031 -26.507812 83.152344 -34.371094 83.585938 -42.285156 C 83.582031 -42.886719 83.59375 -43.390625 83.507812 -43.878906 C 82.914062 -47.292969 79.957031 -48.6875 77.03125 -48.179688 C 74.59375 -47.753906 72.199219 -45.929688 71.554688 -42.703125 C 70.910156 -39.476562 68.988281 -37.230469 66.0625 -36.722656 C 63.332031 -36.246094 61.027344 -37.355469 60.851562 -39.535156 L 63.597656 -53.777344 C 64.148438 -56.386719 64.046875 -58.679688 63.710938 -60.632812 C 62.742188 -66.191406 58.992188 -69.257812 53.433594 -68.289062 C 44.363281 -66.710938 41.394531 -53.734375 43.09375 -43.980469 C 43.703125 -40.46875 44.929688 -37.464844 46.6875 -35.460938 L 45.117188 -27.148438 C 44.289062 -22.683594 41.871094 -19.246094 38.457031 -18.652344 C 36.507812 -18.3125 35.117188 -19.378906 34.808594 -21.132812 C 34.691406 -21.816406 34.652344 -22.613281 34.746094 -23.230469 L 40.5 -55.988281 C 40.703125 -57.128906 40.730469 -58.140625 40.558594 -59.113281 C 39.863281 -63.113281 35.875 -65.234375 32.265625 -64.605469 C 29.535156 -64.128906 26.898438 -61.960938 26.210938 -57.824219 Z M 20.726562 -24.109375 "/></g></g></g><g fill="#fd6155" fill-opacity="0.502"><g transform="translate(262.851583, 179.593414)"><g><path d="M 44.566406 -36.097656 C 42.242188 -24.035156 32.800781 -17.667969 24.507812 -16.226562 C 17.390625 -14.984375 12.308594 -17.617188 11.527344 -22.105469 C 11.375 -22.984375 11.320312 -23.878906 11.539062 -24.921875 L 11.996094 -26.910156 C 15.132812 -25.644531 18.847656 -25.085938 22.75 -25.765625 C 31.625 -27.3125 38.460938 -34.230469 39.566406 -43.464844 C 39.730469 -45.402344 39.699219 -47.308594 39.410156 -48.964844 C 37.796875 -58.230469 29.242188 -64.078125 18.222656 -62.160156 C 9.542969 -60.648438 1.9375 -54.101562 0.222656 -43.753906 L -2.628906 -26.070312 C -3 -23.59375 -3.082031 -21.167969 -2.691406 -18.925781 C -0.671875 -7.320312 11.507812 -2.003906 25.75 -4.480469 C 39.308594 -6.84375 53.5625 -16.15625 56.757812 -35.90625 C 56.914062 -36.738281 56.894531 -37.4375 56.792969 -38.023438 C 56.265625 -41.046875 53.246094 -42.230469 50.320312 -41.71875 C 47.589844 -41.246094 44.917969 -39.273438 44.566406 -36.097656 Z M 19.933594 -50.601562 C 22.664062 -51.074219 24.808594 -49.136719 25.300781 -46.308594 C 25.4375 -45.527344 25.476562 -44.730469 25.320312 -43.902344 C 24.90625 -40.511719 22.183594 -38.832031 19.257812 -38.324219 C 17.402344 -38 15.480469 -38.066406 13.980469 -38.609375 L 15.011719 -44.820312 C 15.558594 -48.03125 17.691406 -50.210938 19.933594 -50.601562 Z M 19.933594 -50.601562 "/></g></g></g><g fill="#fd6155" fill-opacity="0.502"><g transform="translate(309.078705, 171.546825)"><g><path d="M 44.527344 -36.894531 C 42.484375 -26.691406 38.75 -18.703125 34.652344 -17.992188 C 33.289062 -17.753906 32.382812 -18.902344 32.148438 -20.265625 C 32.042969 -20.851562 32.007812 -21.648438 32.164062 -22.480469 L 35.132812 -39.480469 C 35.378906 -41.53125 35.464844 -43.355469 35.175781 -45.011719 C 33.5625 -54.277344 21.179688 -56.144531 15.429688 -56.851562 C 15.585938 -57.683594 15.53125 -58.578125 15.394531 -59.355469 C 14.613281 -63.84375 9.953125 -66.953125 5.5625 -66.1875 C -0.191406 -65.1875 -2.722656 -59.519531 -1.753906 -53.960938 C -1.332031 -51.523438 -0.0117188 -49.136719 1.886719 -47.460938 L -1.886719 -27.003906 C -1.945312 -26.191406 -1.90625 -25.394531 -1.804688 -24.808594 C -1.246094 -21.589844 1.578125 -20.375 4.308594 -20.847656 C 7.039062 -21.324219 9.597656 -23.375 10.226562 -26.703125 L 13.140625 -42.28125 C 16.023438 -41.878906 19.75 -41.824219 20.328125 -38.507812 C 20.414062 -38.023438 20.417969 -37.417969 20.34375 -36.703125 L 18.121094 -24.054688 C 17.730469 -21.675781 17.699219 -19.5625 18.039062 -17.609375 C 19.515625 -9.125 27.210938 -4.738281 35.308594 -6.144531 C 45.941406 -7.996094 53.949219 -19.136719 56.835938 -36.625 C 56.925781 -37.242188 56.941406 -37.746094 56.855469 -38.234375 C 56.347656 -41.160156 52.789062 -42.550781 49.667969 -42.007812 C 47.128906 -41.566406 44.894531 -39.972656 44.527344 -36.894531 Z M 44.527344 -36.894531 "/></g></g></g><g fill="#f6f3e4" fill-opacity="1"><g transform="translate(22.70103, 215.429659)"><g><path d="M 61.890625 -43.9375 C 59.527344 -30.960938 54.53125 -22.152344 48.191406 -21.050781 C 45.75 -20.625 43.855469 -21.703125 43.398438 -24.335938 C 43.175781 -25.605469 43.242188 -27.523438 43.605469 -29.496094 L 53.371094 -85.964844 C 53.667969 -87.726562 53.707031 -89.238281 53.484375 -90.507812 C 52.703125 -94.992188 49.015625 -96.5625 45.40625 -95.933594 C 41.601562 -95.273438 37.796875 -92.296875 36.984375 -87.734375 C 33.195312 -91.597656 26.519531 -91.84375 22.230469 -91.097656 C 12.671875 -89.433594 4.160156 -82.324219 2.472656 -72.382812 L -5.632812 -24.847656 C -6.085938 -22.253906 -6.132812 -19.632812 -5.722656 -17.292969 C -3.921875 -6.953125 5.65625 -0.984375 16.484375 -2.871094 C 22.238281 -3.871094 28.136719 -7.511719 32.179688 -13.136719 C 36.328125 -8.9375 42.625 -7.417969 49.160156 -8.558594 C 63.789062 -11.101562 71.339844 -24.878906 74.117188 -43.550781 C 74.277344 -44.382812 74.238281 -45.179688 74.117188 -45.863281 C 73.542969 -49.179688 70.46875 -50.65625 67.445312 -50.128906 C 64.8125 -49.667969 62.355469 -47.632812 61.890625 -43.9375 Z M 17.234375 -18.175781 C 13.628906 -17.546875 10.941406 -19.691406 10.332031 -23.203125 C 10.128906 -24.375 10.183594 -25.789062 10.414062 -27.335938 L 17.203125 -68.011719 C 18.0625 -72.886719 20.984375 -76.308594 24.886719 -76.988281 C 29.277344 -77.75 33.804688 -74.820312 34.5 -70.824219 C 34.621094 -70.140625 34.542969 -69.421875 34.46875 -68.707031 L 28.484375 -33.800781 C 26.546875 -22.40625 22.210938 -19.039062 17.234375 -18.175781 Z M 17.234375 -18.175781 "/></g></g></g><g fill="#f6f3e4" fill-opacity="1"><g transform="translate(85.409995, 204.514136)"><g><path d="M 49.535156 -37.5625 C 47.28125 -25.113281 42.75 -19.398438 38.164062 -18.601562 C 36.410156 -18.296875 35.28125 -19.003906 34.992188 -20.664062 C 34.875 -21.34375 34.933594 -22.160156 35.054688 -23.183594 L 38.894531 -46.164062 C 39.238281 -48.230469 39.320312 -50.054688 39.035156 -51.714844 C 37.675781 -59.515625 30.023438 -64.214844 22.222656 -62.855469 C 18.417969 -62.195312 15.546875 -60.789062 13.332031 -58.496094 C 12.441406 -60.148438 9.832031 -60.699219 7.199219 -60.242188 C 4.46875 -59.765625 2.054688 -58.039062 1.558594 -55.140625 L -6.804688 -6.753906 C -6.941406 -5.824219 -6.90625 -5.027344 -6.769531 -4.25 C -6.140625 -0.640625 -2.988281 0.722656 0.132812 0.179688 C 3.546875 -0.417969 7.074219 -3.242188 7.773438 -7.886719 C 9.539062 -17.941406 11.894531 -32.117188 13.582031 -42.058594 C 15.367188 -47.394531 18.371094 -50.328125 21.101562 -50.804688 C 22.859375 -51.109375 24.332031 -50.160156 24.652344 -48.304688 C 24.773438 -47.625 24.730469 -46.710938 24.589844 -45.785156 L 20.96875 -24.453125 C 20.578125 -22.074219 20.464844 -19.839844 20.820312 -17.792969 C 22.382812 -8.820312 30.625 -5.332031 38.917969 -6.773438 C 48.867188 -8.507812 58.324219 -17.085938 61.746094 -37.277344 C 61.902344 -38.109375 61.960938 -38.921875 61.84375 -39.605469 C 61.300781 -42.726562 58.183594 -43.894531 55.253906 -43.382812 C 52.621094 -42.925781 49.949219 -40.953125 49.535156 -37.5625 Z M 49.535156 -37.5625 "/></g></g></g><g fill="#f6f3e4" fill-opacity="1"><g transform="translate(136.610937, 195.601772)"><g><path d="M 46.988281 -36.617188 C 45.648438 -30.457031 42.929688 -25.863281 38.902344 -22.449219 C 38.875 -23.75 38.867188 -24.953125 38.648438 -26.222656 C 37.664062 -31.878906 33.703125 -36.71875 30.175781 -40.828125 C 27.648438 -43.804688 25.121094 -46.78125 24.203125 -49.734375 C 26.730469 -51.382812 28.332031 -54.875 27.824219 -57.800781 C 27.09375 -61.996094 23.195312 -65.335938 18.320312 -64.488281 C 14.613281 -63.84375 11.230469 -61.34375 10.039062 -57.21875 C 7.523438 -49.144531 4.734375 -40.921875 2.105469 -32.925781 C -4.140625 -30.128906 -6.066406 -22.15625 -4.980469 -15.914062 C -3.316406 -6.355469 7.53125 -0.609375 24.796875 -3.613281 C 41.765625 -6.566406 55.863281 -15.652344 59.261719 -36.542969 C 59.386719 -36.96875 59.300781 -37.457031 59.234375 -37.84375 C 58.742188 -40.675781 55.167969 -42.160156 52.046875 -41.617188 C 49.703125 -41.210938 47.566406 -39.632812 46.988281 -36.617188 Z M 15.609375 -33.871094 L 16.164062 -35.875 C 19.703125 -32.875 22.859375 -28.597656 23.65625 -24.015625 C 24.453125 -19.429688 22.675781 -15.203125 17.542969 -14.109375 C 14.226562 -13.53125 11.046875 -14.484375 9.53125 -16.832031 C 10.34375 -16.773438 11.125 -16.910156 11.808594 -17.027344 C 17.464844 -18.011719 19.949219 -23.371094 19.117188 -28.148438 C 18.726562 -30.390625 17.554688 -32.5 15.609375 -33.871094 Z M 15.609375 -33.871094 "/></g></g></g><g fill="#f6f3e4" fill-opacity="1"><g transform="translate(185.276213, 187.130782)"><g><path d="M 20.726562 -24.109375 C 19.917969 -18.941406 17.097656 -14.933594 13.78125 -14.355469 C 12.121094 -14.070312 10.941406 -15.070312 10.6875 -16.53125 C 10.585938 -17.117188 10.582031 -17.71875 10.675781 -18.339844 L 16.019531 -51.726562 C 16.222656 -52.867188 16.246094 -53.878906 16.078125 -54.851562 C 15.382812 -58.851562 11.394531 -60.972656 7.785156 -60.34375 C 5.054688 -59.867188 2.417969 -57.699219 1.730469 -53.5625 L -3.988281 -18.296875 C -4.347656 -16.328125 -4.300781 -14.324219 -4.015625 -12.667969 C -2.636719 -4.765625 4.683594 -0.816406 12.484375 -2.171875 C 17.554688 -3.054688 21.667969 -5.984375 24.605469 -9.910156 C 28.203125 -7.121094 33.550781 -5.839844 38.625 -6.722656 C 47.792969 -8.320312 56.429688 -15.851562 58.535156 -26.269531 C 61.28125 -24.9375 64.765625 -24.539062 68.277344 -25.148438 C 76.082031 -26.507812 83.152344 -34.371094 83.585938 -42.285156 C 83.582031 -42.886719 83.59375 -43.390625 83.507812 -43.878906 C 82.914062 -47.292969 79.957031 -48.6875 77.03125 -48.179688 C 74.59375 -47.753906 72.199219 -45.929688 71.554688 -42.703125 C 70.910156 -39.476562 68.988281 -37.230469 66.0625 -36.722656 C 63.332031 -36.246094 61.027344 -37.355469 60.851562 -39.535156 L 63.597656 -53.777344 C 64.148438 -56.386719 64.046875 -58.679688 63.710938 -60.632812 C 62.742188 -66.191406 58.992188 -69.257812 53.433594 -68.289062 C 44.363281 -66.710938 41.394531 -53.734375 43.09375 -43.980469 C 43.703125 -40.46875 44.929688 -37.464844 46.6875 -35.460938 L 45.117188 -27.148438 C 44.289062 -22.683594 41.871094 -19.246094 38.457031 -18.652344 C 36.507812 -18.3125 35.117188 -19.378906 34.808594 -21.132812 C 34.691406 -21.816406 34.652344 -22.613281 34.746094 -23.230469 L 40.5 -55.988281 C 40.703125 -57.128906 40.730469 -58.140625 40.558594 -59.113281 C 39.863281 -63.113281 35.875 -65.234375 32.265625 -64.605469 C 29.535156 -64.128906 26.898438 -61.960938 26.210938 -57.824219 Z M 20.726562 -24.109375 "/></g></g></g><g fill="#f6f3e4" fill-opacity="1"><g transform="translate(258.225383, 174.432783)"><g><path d="M 44.566406 -36.097656 C 42.242188 -24.035156 32.800781 -17.667969 24.507812 -16.226562 C 17.390625 -14.984375 12.308594 -17.617188 11.527344 -22.105469 C 11.375 -22.984375 11.320312 -23.878906 11.539062 -24.921875 L 11.996094 -26.910156 C 15.132812 -25.644531 18.847656 -25.085938 22.75 -25.765625 C 31.625 -27.3125 38.460938 -34.230469 39.566406 -43.464844 C 39.730469 -45.402344 39.699219 -47.308594 39.410156 -48.964844 C 37.796875 -58.230469 29.242188 -64.078125 18.222656 -62.160156 C 9.542969 -60.648438 1.9375 -54.101562 0.222656 -43.753906 L -2.628906 -26.070312 C -3 -23.59375 -3.082031 -21.167969 -2.691406 -18.925781 C -0.671875 -7.320312 11.507812 -2.003906 25.75 -4.480469 C 39.308594 -6.84375 53.5625 -16.15625 56.757812 -35.90625 C 56.914062 -36.738281 56.894531 -37.4375 56.792969 -38.023438 C 56.265625 -41.046875 53.246094 -42.230469 50.320312 -41.71875 C 47.589844 -41.246094 44.917969 -39.273438 44.566406 -36.097656 Z M 19.933594 -50.601562 C 22.664062 -51.074219 24.808594 -49.136719 25.300781 -46.308594 C 25.4375 -45.527344 25.476562 -44.730469 25.320312 -43.902344 C 24.90625 -40.511719 22.183594 -38.832031 19.257812 -38.324219 C 17.402344 -38 15.480469 -38.066406 13.980469 -38.609375 L 15.011719 -44.820312 C 15.558594 -48.03125 17.691406 -50.210938 19.933594 -50.601562 Z M 19.933594 -50.601562 "/></g></g></g><g fill="#f6f3e4" fill-opacity="1"><g transform="translate(304.452506, 166.386194)"><g><path d="M 44.527344 -36.894531 C 42.484375 -26.691406 38.75 -18.703125 34.652344 -17.992188 C 33.289062 -17.753906 32.382812 -18.902344 32.148438 -20.265625 C 32.042969 -20.851562 32.007812 -21.648438 32.164062 -22.480469 L 35.132812 -39.480469 C 35.378906 -41.53125 35.464844 -43.355469 35.175781 -45.011719 C 33.5625 -54.277344 21.179688 -56.144531 15.429688 -56.851562 C 15.585938 -57.683594 15.53125 -58.578125 15.394531 -59.355469 C 14.613281 -63.84375 9.953125 -66.953125 5.5625 -66.1875 C -0.191406 -65.1875 -2.722656 -59.519531 -1.753906 -53.960938 C -1.332031 -51.523438 -0.0117188 -49.136719 1.886719 -47.460938 L -1.886719 -27.003906 C -1.945312 -26.191406 -1.90625 -25.394531 -1.804688 -24.808594 C -1.246094 -21.589844 1.578125 -20.375 4.308594 -20.847656 C 7.039062 -21.324219 9.597656 -23.375 10.226562 -26.703125 L 13.140625 -42.28125 C 16.023438 -41.878906 19.75 -41.824219 20.328125 -38.507812 C 20.414062 -38.023438 20.417969 -37.417969 20.34375 -36.703125 L 18.121094 -24.054688 C 17.730469 -21.675781 17.699219 -19.5625 18.039062 -17.609375 C 19.515625 -9.125 27.210938 -4.738281 35.308594 -6.144531 C 45.941406 -7.996094 53.949219 -19.136719 56.835938 -36.625 C 56.925781 -37.242188 56.941406 -37.746094 56.855469 -38.234375 C 56.347656 -41.160156 52.789062 -42.550781 49.667969 -42.007812 C 47.128906 -41.566406 44.894531 -39.972656 44.527344 -36.894531 Z M 44.527344 -36.894531 "/></g></g></g><g fill="#fd6155" fill-opacity="0.302"><g transform="translate(135.893833, 288.673164)"><g><path d="M 73.902344 -41.476562 C 71.515625 -41.113281 69.148438 -39.398438 68.691406 -36.433594 C 66.402344 -25.230469 62.191406 -20.160156 58.035156 -19.535156 C 56.265625 -19.265625 55.222656 -20.195312 55.019531 -21.519531 C 54.953125 -21.964844 54.886719 -22.40625 55.011719 -22.785156 L 59.417969 -44.535156 C 59.695312 -46.296875 59.78125 -48.117188 59.554688 -49.621094 C 58.417969 -57.140625 51.074219 -60.828125 43.023438 -59.613281 C 39.839844 -59.132812 35.359375 -57.640625 31.785156 -53.753906 C 29.605469 -55.59375 26.390625 -57.101562 21.261719 -56.324219 C 17.632812 -55.777344 15.671875 -54.394531 14.226562 -53.179688 C 13.050781 -54.363281 11 -54.773438 9.054688 -54.480469 C 6.3125 -54.066406 3.679688 -52.3125 3.007812 -49.585938 L -4.988281 -6.667969 C -5.132812 -5.828125 -5.113281 -5.109375 -5.019531 -4.488281 C -4.527344 -1.214844 -1.414062 0.214844 1.679688 -0.253906 C 4.6875 -0.707031 7.429688 -2.933594 8.132812 -6.65625 L 14.089844 -38.503906 C 15.375 -42.585938 17.882812 -45.136719 20.539062 -45.539062 C 22.308594 -45.804688 23.691406 -45.019531 23.933594 -43.425781 C 24 -42.984375 24.003906 -42.351562 23.832031 -41.695312 L 17.824219 -11.378906 C 17.558594 -10.160156 17.464844 -8.972656 17.613281 -8 C 18.121094 -4.636719 21.054688 -3.179688 24.0625 -3.632812 C 26.980469 -4.074219 29.898438 -6.324219 30.652344 -10.332031 L 36.484375 -40.617188 C 37.40625 -45.28125 40.355469 -48.53125 43.273438 -48.972656 C 44.867188 -49.214844 46.265625 -48.339844 46.519531 -46.65625 C 46.597656 -46.128906 46.605469 -45.496094 46.457031 -44.660156 L 42.5 -25.332031 C 42.101562 -23.1875 42.054688 -21.101562 42.335938 -19.242188 C 43.550781 -11.191406 50.867188 -7.683594 58.652344 -8.859375 C 67.410156 -10.183594 76.285156 -17.3125 79.71875 -35.929688 C 79.800781 -36.574219 79.882812 -37.21875 79.792969 -37.839844 C 79.363281 -40.671875 76.558594 -41.875 73.902344 -41.476562 Z M 73.902344 -41.476562 "/></g></g></g><g fill="#fd6155" fill-opacity="0.302"><g transform="translate(205.418016, 278.17182)"><g><path d="M 40.996094 -31.707031 C 38.652344 -20.859375 29.992188 -15.296875 22.472656 -14.160156 C 16.015625 -13.1875 11.476562 -15.667969 10.863281 -19.738281 C 10.742188 -20.535156 10.710938 -21.34375 10.929688 -22.28125 L 11.382812 -24.070312 C 14.191406 -22.863281 17.535156 -22.285156 21.074219 -22.816406 C 29.125 -24.035156 35.441406 -30.144531 36.625 -38.46875 C 36.816406 -40.214844 36.824219 -41.9375 36.597656 -43.441406 C 35.328125 -51.84375 27.71875 -57.300781 17.722656 -55.789062 C 9.847656 -54.601562 2.847656 -48.839844 1.085938 -39.523438 L -1.847656 -23.609375 C -2.234375 -21.378906 -2.355469 -19.1875 -2.046875 -17.152344 C -0.457031 -6.625 10.4375 -1.578125 23.355469 -3.527344 C 35.652344 -5.386719 48.71875 -13.511719 52.007812 -31.289062 C 52.164062 -32.039062 52.160156 -32.671875 52.078125 -33.203125 C 51.664062 -35.945312 48.960938 -37.074219 46.308594 -36.671875 C 43.832031 -36.300781 41.378906 -34.570312 40.996094 -31.707031 Z M 19.035156 -45.3125 C 21.511719 -45.6875 23.410156 -43.890625 23.796875 -41.324219 C 23.90625 -40.617188 23.921875 -39.898438 23.765625 -39.148438 C 23.320312 -36.097656 20.828125 -34.632812 18.175781 -34.234375 C 16.492188 -33.980469 14.757812 -34.078125 13.414062 -34.601562 L 14.46875 -40.1875 C 15.027344 -43.078125 17 -45.003906 19.035156 -45.3125 Z M 19.035156 -45.3125 "/></g></g></g><g fill="#fd6155" fill-opacity="0.302"><g transform="translate(247.344817, 271.838948)"><g><path d="M 33.195312 -29.445312 L 45.09375 -80.644531 C 46.449219 -91.4375 33.355469 -91.269531 31.636719 -81.6875 L 21.703125 -31.238281 C 19.765625 -23.707031 31.375 -21.117188 33.195312 -29.445312 Z M 22.933594 -18.304688 C 18.953125 -17.703125 16.160156 -14.023438 16.773438 -9.953125 C 17.375 -5.972656 21.144531 -3.195312 25.125 -3.792969 C 29.195312 -4.410156 31.972656 -8.175781 31.371094 -12.15625 C 30.757812 -16.226562 27.003906 -18.917969 22.933594 -18.304688 Z M 22.933594 -18.304688 "/></g></g></g><g fill="#fd6155" fill-opacity="0.502"><g transform="translate(131.818943, 283.917125)"><g><path d="M 73.902344 -41.476562 C 71.515625 -41.113281 69.148438 -39.398438 68.691406 -36.433594 C 66.402344 -25.230469 62.191406 -20.160156 58.035156 -19.535156 C 56.265625 -19.265625 55.222656 -20.195312 55.019531 -21.519531 C 54.953125 -21.964844 54.886719 -22.40625 55.011719 -22.785156 L 59.417969 -44.535156 C 59.695312 -46.296875 59.78125 -48.117188 59.554688 -49.621094 C 58.417969 -57.140625 51.074219 -60.828125 43.023438 -59.613281 C 39.839844 -59.132812 35.359375 -57.640625 31.785156 -53.753906 C 29.605469 -55.59375 26.390625 -57.101562 21.261719 -56.324219 C 17.632812 -55.777344 15.671875 -54.394531 14.226562 -53.179688 C 13.050781 -54.363281 11 -54.773438 9.054688 -54.480469 C 6.3125 -54.066406 3.679688 -52.3125 3.007812 -49.585938 L -4.988281 -6.667969 C -5.132812 -5.828125 -5.113281 -5.109375 -5.019531 -4.488281 C -4.527344 -1.214844 -1.414062 0.214844 1.679688 -0.253906 C 4.6875 -0.707031 7.429688 -2.933594 8.132812 -6.65625 L 14.089844 -38.503906 C 15.375 -42.585938 17.882812 -45.136719 20.539062 -45.539062 C 22.308594 -45.804688 23.691406 -45.019531 23.933594 -43.425781 C 24 -42.984375 24.003906 -42.351562 23.832031 -41.695312 L 17.824219 -11.378906 C 17.558594 -10.160156 17.464844 -8.972656 17.613281 -8 C 18.121094 -4.636719 21.054688 -3.179688 24.0625 -3.632812 C 26.980469 -4.074219 29.898438 -6.324219 30.652344 -10.332031 L 36.484375 -40.617188 C 37.40625 -45.28125 40.355469 -48.53125 43.273438 -48.972656 C 44.867188 -49.214844 46.265625 -48.339844 46.519531 -46.65625 C 46.597656 -46.128906 46.605469 -45.496094 46.457031 -44.660156 L 42.5 -25.332031 C 42.101562 -23.1875 42.054688 -21.101562 42.335938 -19.242188 C 43.550781 -11.191406 50.867188 -7.683594 58.652344 -8.859375 C 67.410156 -10.183594 76.285156 -17.3125 79.71875 -35.929688 C 79.800781 -36.574219 79.882812 -37.21875 79.792969 -37.839844 C 79.363281 -40.671875 76.558594 -41.875 73.902344 -41.476562 Z M 73.902344 -41.476562 "/></g></g></g><g fill="#fd6155" fill-opacity="0.502"><g transform="translate(201.343126, 273.415781)"><g><path d="M 40.996094 -31.707031 C 38.652344 -20.859375 29.992188 -15.296875 22.472656 -14.160156 C 16.015625 -13.1875 11.476562 -15.667969 10.863281 -19.738281 C 10.742188 -20.535156 10.710938 -21.34375 10.929688 -22.28125 L 11.382812 -24.070312 C 14.191406 -22.863281 17.535156 -22.285156 21.074219 -22.816406 C 29.125 -24.035156 35.441406 -30.144531 36.625 -38.46875 C 36.816406 -40.214844 36.824219 -41.9375 36.597656 -43.441406 C 35.328125 -51.84375 27.71875 -57.300781 17.722656 -55.789062 C 9.847656 -54.601562 2.847656 -48.839844 1.085938 -39.523438 L -1.847656 -23.609375 C -2.234375 -21.378906 -2.355469 -19.1875 -2.046875 -17.152344 C -0.457031 -6.625 10.4375 -1.578125 23.355469 -3.527344 C 35.652344 -5.386719 48.71875 -13.511719 52.007812 -31.289062 C 52.164062 -32.039062 52.160156 -32.671875 52.078125 -33.203125 C 51.664062 -35.945312 48.960938 -37.074219 46.308594 -36.671875 C 43.832031 -36.300781 41.378906 -34.570312 40.996094 -31.707031 Z M 19.035156 -45.3125 C 21.511719 -45.6875 23.410156 -43.890625 23.796875 -41.324219 C 23.90625 -40.617188 23.921875 -39.898438 23.765625 -39.148438 C 23.320312 -36.097656 20.828125 -34.632812 18.175781 -34.234375 C 16.492188 -33.980469 14.757812 -34.078125 13.414062 -34.601562 L 14.46875 -40.1875 C 15.027344 -43.078125 17 -45.003906 19.035156 -45.3125 Z M 19.035156 -45.3125 "/></g></g></g><g fill="#fd6155" fill-opacity="0.502"><g transform="translate(243.269927, 267.082909)"><g><path d="M 33.195312 -29.445312 L 45.09375 -80.644531 C 46.449219 -91.4375 33.355469 -91.269531 31.636719 -81.6875 L 21.703125 -31.238281 C 19.765625 -23.707031 31.375 -21.117188 33.195312 -29.445312 Z M 22.933594 -18.304688 C 18.953125 -17.703125 16.160156 -14.023438 16.773438 -9.953125 C 17.375 -5.972656 21.144531 -3.195312 25.125 -3.792969 C 29.195312 -4.410156 31.972656 -8.175781 31.371094 -12.15625 C 30.757812 -16.226562 27.003906 -18.917969 22.933594 -18.304688 Z M 22.933594 -18.304688 "/></g></g></g><g fill="#f6f3e4" fill-opacity="1"><g transform="translate(127.744055, 279.161084)"><g><path d="M 73.902344 -41.476562 C 71.515625 -41.113281 69.148438 -39.398438 68.691406 -36.433594 C 66.402344 -25.230469 62.191406 -20.160156 58.035156 -19.535156 C 56.265625 -19.265625 55.222656 -20.195312 55.019531 -21.519531 C 54.953125 -21.964844 54.886719 -22.40625 55.011719 -22.785156 L 59.417969 -44.535156 C 59.695312 -46.296875 59.78125 -48.117188 59.554688 -49.621094 C 58.417969 -57.140625 51.074219 -60.828125 43.023438 -59.613281 C 39.839844 -59.132812 35.359375 -57.640625 31.785156 -53.753906 C 29.605469 -55.59375 26.390625 -57.101562 21.261719 -56.324219 C 17.632812 -55.777344 15.671875 -54.394531 14.226562 -53.179688 C 13.050781 -54.363281 11 -54.773438 9.054688 -54.480469 C 6.3125 -54.066406 3.679688 -52.3125 3.007812 -49.585938 L -4.988281 -6.667969 C -5.132812 -5.828125 -5.113281 -5.109375 -5.019531 -4.488281 C -4.527344 -1.214844 -1.414062 0.214844 1.679688 -0.253906 C 4.6875 -0.707031 7.429688 -2.933594 8.132812 -6.65625 L 14.089844 -38.503906 C 15.375 -42.585938 17.882812 -45.136719 20.539062 -45.539062 C 22.308594 -45.804688 23.691406 -45.019531 23.933594 -43.425781 C 24 -42.984375 24.003906 -42.351562 23.832031 -41.695312 L 17.824219 -11.378906 C 17.558594 -10.160156 17.464844 -8.972656 17.613281 -8 C 18.121094 -4.636719 21.054688 -3.179688 24.0625 -3.632812 C 26.980469 -4.074219 29.898438 -6.324219 30.652344 -10.332031 L 36.484375 -40.617188 C 37.40625 -45.28125 40.355469 -48.53125 43.273438 -48.972656 C 44.867188 -49.214844 46.265625 -48.339844 46.519531 -46.65625 C 46.597656 -46.128906 46.605469 -45.496094 46.457031 -44.660156 L 42.5 -25.332031 C 42.101562 -23.1875 42.054688 -21.101562 42.335938 -19.242188 C 43.550781 -11.191406 50.867188 -7.683594 58.652344 -8.859375 C 67.410156 -10.183594 76.285156 -17.3125 79.71875 -35.929688 C 79.800781 -36.574219 79.882812 -37.21875 79.792969 -37.839844 C 79.363281 -40.671875 76.558594 -41.875 73.902344 -41.476562 Z M 73.902344 -41.476562 "/></g></g></g><g fill="#f6f3e4" fill-opacity="1"><g transform="translate(197.268239, 268.65974)"><g><path d="M 40.996094 -31.707031 C 38.652344 -20.859375 29.992188 -15.296875 22.472656 -14.160156 C 16.015625 -13.1875 11.476562 -15.667969 10.863281 -19.738281 C 10.742188 -20.535156 10.710938 -21.34375 10.929688 -22.28125 L 11.382812 -24.070312 C 14.191406 -22.863281 17.535156 -22.285156 21.074219 -22.816406 C 29.125 -24.035156 35.441406 -30.144531 36.625 -38.46875 C 36.816406 -40.214844 36.824219 -41.9375 36.597656 -43.441406 C 35.328125 -51.84375 27.71875 -57.300781 17.722656 -55.789062 C 9.847656 -54.601562 2.847656 -48.839844 1.085938 -39.523438 L -1.847656 -23.609375 C -2.234375 -21.378906 -2.355469 -19.1875 -2.046875 -17.152344 C -0.457031 -6.625 10.4375 -1.578125 23.355469 -3.527344 C 35.652344 -5.386719 48.71875 -13.511719 52.007812 -31.289062 C 52.164062 -32.039062 52.160156 -32.671875 52.078125 -33.203125 C 51.664062 -35.945312 48.960938 -37.074219 46.308594 -36.671875 C 43.832031 -36.300781 41.378906 -34.570312 40.996094 -31.707031 Z M 19.035156 -45.3125 C 21.511719 -45.6875 23.410156 -43.890625 23.796875 -41.324219 C 23.90625 -40.617188 23.921875 -39.898438 23.765625 -39.148438 C 23.320312 -36.097656 20.828125 -34.632812 18.175781 -34.234375 C 16.492188 -33.980469 14.757812 -34.078125 13.414062 -34.601562 L 14.46875 -40.1875 C 15.027344 -43.078125 17 -45.003906 19.035156 -45.3125 Z M 19.035156 -45.3125 "/></g></g></g><g fill="#f6f3e4" fill-opacity="1"><g transform="translate(239.195039, 262.326868)"><g><path d="M 33.195312 -29.445312 L 45.09375 -80.644531 C 46.449219 -91.4375 33.355469 -91.269531 31.636719 -81.6875 L 21.703125 -31.238281 C 19.765625 -23.707031 31.375 -21.117188 33.195312 -29.445312 Z M 22.933594 -18.304688 C 18.953125 -17.703125 16.160156 -14.023438 16.773438 -9.953125 C 17.375 -5.972656 21.144531 -3.195312 25.125 -3.792969 C 29.195312 -4.410156 31.972656 -8.175781 31.371094 -12.15625 C 30.757812 -16.226562 27.003906 -18.917969 22.933594 -18.304688 Z M 22.933594 -18.304688 "/></g></g></g></svg>